<svg xmlns="http://www.w3.org/2000/svg" viewBox="0 0 181 57.14"><defs><style>.cls-1{fill:#ee4d2d;}</style></defs><g id="レイヤー_2" data-name="レイヤー 2"><g id="header"><path class="cls-1" d="M41.93,54.24a4.91,4.91,0,0,0,4.68-4.53l0-.3,1.75-35.23h0v-.06a1,1,0,0,0-1-1H36.11C35.84,5.81,30.6,0,24.19,0S12.54,5.81,12.26,13.09H1a1,1,0,0,0-1,1v.08H0L1.6,49.3l0,.44a4.78,4.78,0,0,0,4.46,4.5H41.93ZM24.19,3.17c4.67,0,8.48,4.4,8.66,9.92H15.52C15.7,7.57,19.51,3.17,24.19,3.17ZM33.1,40.6a7.07,7.07,0,0,1-4.4,5.77,11,11,0,0,1-4.69.8,15,15,0,0,1-6.39-1.64,16.54,16.54,0,0,1-2.57-1.75c-.18-.15-.27-.29-.1-.53l1-1.51a.41.41,0,0,1,.65-.07l.31.25A12.49,12.49,0,0,0,24,44.61c3.43,0,5.92-1.58,6.36-4,.49-2.61-1.59-4.84-5.6-6.09a48,48,0,0,1-5.07-2q-4.18-2.44-3.91-6.39c.29-3.64,3.69-6.37,8-6.39a14.31,14.31,0,0,1,7.9,2.37.43.43,0,0,1,.15.63c-.17.29-.67,1.08-.88,1.4s-.33.26-.59.09a12,12,0,0,0-6.52-2c-2.95.06-5.17,1.8-5.32,4.18,0,2.16,1.61,3.72,5.11,4.91C30.88,33.65,33.62,36.35,33.1,40.6Z"/><path class="cls-1" d="M67.65,30.86c-3.53-1.13-5.16-2.62-5.16-4.67.1-2.28,2.23-4,5.13-4.11A11.7,11.7,0,0,1,74.1,24c.52.32.78.2,1.08-.2l.52-.74h0l.52-.76c.25-.48.25-.73-.27-1.1a15.07,15.07,0,0,0-8.46-2.38c-4.65.1-8.29,3.12-8.53,7.09-.15,2.87,1.32,5.18,4.36,6.88a46.82,46.82,0,0,0,5.38,2c4,1.19,6.12,3.34,5.7,5.85C74,43,71.59,44.5,68.16,44.61A12.51,12.51,0,0,1,61,42l-.17-.12-.17-.13c-.47-.33-.82-.33-1.15.17l-.54.81c-.3.46-.44.66-.51.78-.28.41-.23.64.18,1h0a16.75,16.75,0,0,0,2.77,1.82,16.2,16.2,0,0,0,6.82,1.62,11.91,11.91,0,0,0,5-.94,7.71,7.71,0,0,0,4.66-6.34C78.36,36,75.33,33.16,67.65,30.86Z"/><path class="cls-1" d="M89.2,29.71a8.65,8.65,0,0,0-5.13,1.7V19.48c0-.47-.18-.65-.64-.65H81.27c-.52,0-.65.17-.65.65V47.19c0,.46.13.65.65.65h2.16c.47,0,.64-.2.64-.65v-9a5.13,5.13,0,0,1,10.26,0v9c0,.53.13.65.65.65h2.15c.51,0,.65-.12.65-.65V38.13A8.56,8.56,0,0,0,89.2,29.71Z"/><path class="cls-1" d="M109.8,29.73a9.1,9.1,0,1,0,9.27,9.1A9.19,9.19,0,0,0,109.8,29.73Zm0,14.84a5.75,5.75,0,1,1,5.88-5.75A5.81,5.81,0,0,1,109.79,44.57Z"/><path class="cls-1" d="M179.94,40.05H180a1.09,1.09,0,0,0,1-1.1v-.14a8.8,8.8,0,1,0-17.59,0,10.37,10.37,0,0,0,.06,1.12l0,.12h0a8.8,8.8,0,0,0,2.23,4.8h0a9.26,9.26,0,0,0,5.21,2.88l.16,0h0l.24,0a12.1,12.1,0,0,0,7-1.07,8.49,8.49,0,0,0,1.33-.82,3.43,3.43,0,0,0,.33-.27l.12-.1c.49-.51.51-.73.22-1.19-.68-1.08-1.06-1.61-1.06-1.61-.27-.34-.51-.41-.85-.11a1,1,0,0,0-.14.12,8,8,0,0,1-7,1.67,7.57,7.57,0,0,1-1.34-.49,5.62,5.62,0,0,1-3.06-3.88h13Zm-12.83-3.34a5.24,5.24,0,0,1,5.09-3.66,5.65,5.65,0,0,1,5.19,3.66Z"/><path class="cls-1" d="M131.05,29.69a9.06,9.06,0,0,0-5.77,2V30.33c0-.49-.14-.64-.65-.64h-2c-.52,0-.65.14-.65.64V56.5c0,.47.13.64.65.64h2c.51,0,.65-.17.65-.64V45.82a9.1,9.1,0,1,0,5.77-16.13Zm0,14.84a5.75,5.75,0,0,1-5.76-5.61v-.3A5.77,5.77,0,1,1,131,44.53Z"/><path class="cls-1" d="M160.63,38.81a8.8,8.8,0,1,0-17.59,0,8.32,8.32,0,0,0,.07,1.12v.12h0a8.94,8.94,0,0,0,2.23,4.8h0a9.32,9.32,0,0,0,5.22,2.88l.16,0h0l.23,0a12.12,12.12,0,0,0,7-1.07,9,9,0,0,0,1.33-.82l.33-.27.12-.1c.49-.51.51-.73.22-1.19-.69-1.08-1.07-1.61-1.07-1.61-.26-.34-.5-.41-.84-.11l-.15.12a8,8,0,0,1-7,1.67,7.76,7.76,0,0,1-1.33-.49,5.59,5.59,0,0,1-3.06-3.88h13.08a1.09,1.09,0,0,0,1-1.1.17.17,0,0,0,0-.07Zm-13.88-2.1a5.23,5.23,0,0,1,5.09-3.66A5.65,5.65,0,0,1,157,36.71Z"/></g></g></svg>